<svg xmlns="http://www.w3.org/2000/svg" xmlns:xlink="http://www.w3.org/1999/xlink" width="1920" zoomAndPan="magnify" viewBox="0 0 1440 809.999993" height="1080" preserveAspectRatio="xMidYMid meet" version="1.0"><defs><g/><clipPath id="a77401573b"><path d="M 419 209 L 565 209 L 565 538 L 419 538 Z M 419 209 " clip-rule="nonzero"/></clipPath><clipPath id="a8ea92caef"><path d="M 391.359375 224.585938 L 565.003906 209.292969 L 592.601562 522.652344 L 418.957031 537.945312 Z M 391.359375 224.585938 " clip-rule="nonzero"/></clipPath><clipPath id="4678199b4e"><path d="M 391.359375 224.585938 L 565.003906 209.292969 L 592.601562 522.652344 L 418.957031 537.945312 Z M 391.359375 224.585938 " clip-rule="nonzero"/></clipPath></defs><g clip-path="url(#a77401573b)"><g clip-path="url(#a8ea92caef)"><g clip-path="url(#4678199b4e)"><path fill="#ffde59" d="M 564.800781 209.449219 L 464.871094 339.265625 L 515.328125 319.140625 L 448.554688 417.777344 L 487.601562 402.773438 L 419 538.433594 L 534.039062 369.894531 L 484.8125 387.917969 L 554.882812 286.53125 L 507.765625 305.679688 Z M 564.800781 209.449219 " fill-opacity="1" fill-rule="nonzero"/></g></g></g><g fill="#ffffff" fill-opacity="1"><g transform="translate(566.19677, 372.209933)"><g><path d="M 32.914062 -110.238281 L 1.574219 -110.238281 L 1.574219 -98.742188 L 11.496094 -98.742188 L 11.496094 0.15625 L 22.835938 0.15625 L 22.835938 -98.742188 L 32.914062 -98.742188 Z M 32.914062 -110.238281 "/></g></g></g><g fill="#ffffff" fill-opacity="1"><g transform="translate(605.880629, 372.209933)"><g><path d="M 25.355469 -110.238281 L 25.355469 -74.175781 L 15.277344 -74.175781 L 15.277344 -110.238281 L 3.9375 -110.238281 L 3.9375 0.15625 L 15.277344 0.15625 L 15.277344 -62.679688 L 25.355469 -62.679688 L 25.355469 0.15625 L 36.695312 0.15625 L 36.695312 -110.238281 Z M 25.355469 -110.238281 "/></g></g></g><g fill="#ffffff" fill-opacity="1"><g transform="translate(651.705944, 372.209933)"><g><path d="M 25.355469 -110.238281 L 25.355469 -11.339844 L 15.277344 -11.339844 L 15.277344 -110.238281 L 3.9375 -110.238281 L 3.9375 0 L 36.695312 0 L 36.695312 -110.238281 Z M 25.355469 -110.238281 "/></g></g></g><g fill="#ffffff" fill-opacity="1"><g transform="translate(697.531254, 372.209933)"><g><path d="M 27.558594 -110.238281 L 27.558594 -34.488281 L 18.269531 -110.238281 L 3.9375 -110.238281 L 3.9375 0 L 15.277344 0 L 15.277344 -75.75 L 24.566406 0 L 39.054688 0 L 39.054688 -110.238281 Z M 27.558594 -110.238281 "/></g></g></g><g fill="#ffffff" fill-opacity="1"><g transform="translate(745.718678, 372.209933)"><g><path d="M 25.355469 -85.671875 L 25.355469 -11.339844 L 15.277344 -11.339844 L 15.277344 -98.742188 L 19.6875 -98.742188 L 25.355469 -85.671875 L 36.695312 -85.671875 L 26.144531 -110.238281 L 3.9375 -110.238281 L 3.9375 0 L 36.695312 0 L 36.695312 -85.671875 Z M 25.355469 -85.671875 "/></g></g></g><g fill="#ffffff" fill-opacity="1"><g transform="translate(791.543994, 372.209933)"><g><path d="M 32.914062 -98.742188 L 32.914062 -110.238281 L 3.9375 -110.238281 L 3.9375 0.15625 L 32.914062 0.15625 L 32.914062 -11.339844 L 15.277344 -11.339844 L 15.277344 -62.679688 L 32.914062 -62.679688 L 32.914062 -74.175781 L 15.277344 -74.175781 L 15.277344 -98.742188 Z M 32.914062 -98.742188 "/></g></g></g><g fill="#ffffff" fill-opacity="1"><g transform="translate(833.589946, 372.209933)"><g><path d="M 36.695312 -44.410156 L 36.695312 -110.238281 L 3.9375 -110.238281 L 3.9375 0 L 15.277344 0 L 15.277344 -44.410156 L 15.75 -44.410156 L 25.355469 0 L 36.695312 0 L 27.085938 -44.410156 Z M 25.355469 -98.742188 L 25.355469 -55.90625 L 15.277344 -55.90625 L 15.277344 -98.742188 Z M 25.355469 -98.742188 "/></g></g></g><g fill="#ffffff" fill-opacity="1"><g transform="translate(566.19677, 510.460821)"><g><path d="M 3.9375 -110.238281 L 3.9375 -98.742188 L 25.355469 -98.742188 L 25.355469 -11.339844 L 15.277344 -11.339844 L 15.277344 -36.0625 L 3.9375 -36.0625 L 3.9375 0 L 36.695312 0 L 36.695312 -110.238281 Z M 3.9375 -110.238281 "/></g></g></g><g fill="#ffffff" fill-opacity="1"><g transform="translate(612.022084, 510.460821)"><g><path d="M 3.9375 -110.238281 L 3.9375 0.15625 L 36.695312 0.15625 L 36.695312 -110.238281 Z M 15.277344 -11.339844 L 15.277344 -98.742188 L 25.355469 -98.742188 L 25.355469 -11.339844 Z M 15.277344 -11.339844 "/></g></g></g><g fill="#ffffff" fill-opacity="1"><g transform="translate(657.847399, 510.460821)"><g><path d="M 3.9375 -110.238281 L 3.9375 0.15625 L 36.695312 0.15625 L 36.695312 -50.710938 L 31.023438 -60.003906 L 36.695312 -69.136719 L 36.695312 -110.238281 Z M 25.355469 -11.339844 L 15.277344 -11.339844 L 15.277344 -54.175781 L 23.152344 -54.175781 L 25.355469 -50.710938 Z M 25.355469 -69.136719 L 23.152344 -65.671875 L 15.277344 -65.671875 L 15.277344 -98.742188 L 25.355469 -98.742188 Z M 25.355469 -69.136719 "/></g></g></g><g fill="#ffffff" fill-opacity="1"><g transform="translate(703.67271, 510.460821)"><g><path d="M 3.9375 -110.238281 L 3.9375 -54.175781 L 25.355469 -54.175781 L 25.355469 -11.339844 L 15.277344 -11.339844 L 15.277344 -30.550781 L 3.9375 -30.550781 L 3.9375 0 L 36.695312 0 L 36.695312 -65.671875 L 15.277344 -65.671875 L 15.277344 -98.742188 L 25.355469 -98.742188 L 25.355469 -79.53125 L 36.695312 -79.53125 L 36.695312 -110.238281 Z M 3.9375 -110.238281 "/></g></g></g></svg>