<svg xmlns="http://www.w3.org/2000/svg" xmlns:xlink="http://www.w3.org/1999/xlink" width="1632" zoomAndPan="magnify" viewBox="0 0 1224 923.249971" height="1231" preserveAspectRatio="xMidYMid meet" version="1.0"><defs><g/><clipPath id="8dc6f9e324"><path d="M 65 38 L 411 38 L 411 817 L 65 817 Z M 65 38 " clip-rule="nonzero"/></clipPath><clipPath id="c670e41c74"><path d="M 0.632812 74.335938 L 410.464844 38.242188 L 475.816406 780.261719 L 65.988281 816.359375 Z M 0.632812 74.335938 " clip-rule="nonzero"/></clipPath><clipPath id="21eadff522"><path d="M 0.632812 74.335938 L 410.464844 38.242188 L 475.816406 780.261719 L 65.988281 816.359375 Z M 0.632812 74.335938 " clip-rule="nonzero"/></clipPath></defs><g clip-path="url(#8dc6f9e324)"><g clip-path="url(#c670e41c74)"><g clip-path="url(#21eadff522)"><path fill="#ffde59" d="M 410.671875 38.523438 L 174.425781 345.425781 L 293.714844 297.847656 L 135.84375 531.03125 L 228.160156 495.566406 L 65.980469 816.285156 L 337.949219 417.835938 L 221.566406 460.441406 L 387.21875 220.75 L 275.828125 266.023438 Z M 410.671875 38.523438 " fill-opacity="1" fill-rule="nonzero"/></g></g></g><g fill="#ffffff" fill-opacity="1"><g transform="translate(413.928236, 423.297481)"><g><path d="M 77.804688 -260.59375 L 3.722656 -260.59375 L 3.722656 -233.417969 L 27.175781 -233.417969 L 27.175781 0.371094 L 53.980469 0.371094 L 53.980469 -233.417969 L 77.804688 -233.417969 Z M 77.804688 -260.59375 "/></g></g></g><g fill="#ffffff" fill-opacity="1"><g transform="translate(507.735622, 423.297481)"><g><path d="M 59.9375 -260.59375 L 59.9375 -175.339844 L 36.109375 -175.339844 L 36.109375 -260.59375 L 9.308594 -260.59375 L 9.308594 0.371094 L 36.109375 0.371094 L 36.109375 -148.164062 L 59.9375 -148.164062 L 59.9375 0.371094 L 86.738281 0.371094 L 86.738281 -260.59375 Z M 59.9375 -260.59375 "/></g></g></g><g fill="#ffffff" fill-opacity="1"><g transform="translate(616.060595, 423.297481)"><g><path d="M 59.9375 -260.59375 L 59.9375 -26.804688 L 36.109375 -26.804688 L 36.109375 -260.59375 L 9.308594 -260.59375 L 9.308594 0 L 86.738281 0 L 86.738281 -260.59375 Z M 59.9375 -260.59375 "/></g></g></g><g fill="#ffffff" fill-opacity="1"><g transform="translate(724.385558, 423.297481)"><g><path d="M 65.148438 -260.59375 L 65.148438 -81.527344 L 43.183594 -260.59375 L 9.308594 -260.59375 L 9.308594 0 L 36.109375 0 L 36.109375 -179.066406 L 58.074219 0 L 92.324219 0 L 92.324219 -260.59375 Z M 65.148438 -260.59375 "/></g></g></g><g fill="#ffffff" fill-opacity="1"><g transform="translate(838.294242, 423.297481)"><g><path d="M 59.9375 -202.519531 L 59.9375 -26.804688 L 36.109375 -26.804688 L 36.109375 -233.417969 L 46.535156 -233.417969 L 59.9375 -202.519531 L 86.738281 -202.519531 L 61.796875 -260.59375 L 9.308594 -260.59375 L 9.308594 0 L 86.738281 0 L 86.738281 -202.519531 Z M 59.9375 -202.519531 "/></g></g></g><g fill="#ffffff" fill-opacity="1"><g transform="translate(946.619219, 423.297481)"><g><path d="M 77.804688 -233.417969 L 77.804688 -260.59375 L 9.308594 -260.59375 L 9.308594 0.371094 L 77.804688 0.371094 L 77.804688 -26.804688 L 36.109375 -26.804688 L 36.109375 -148.164062 L 77.804688 -148.164062 L 77.804688 -175.339844 L 36.109375 -175.339844 L 36.109375 -233.417969 Z M 77.804688 -233.417969 "/></g></g></g><g fill="#ffffff" fill-opacity="1"><g transform="translate(1046.010279, 423.297481)"><g><path d="M 86.738281 -104.980469 L 86.738281 -260.59375 L 9.308594 -260.59375 L 9.308594 0 L 36.109375 0 L 36.109375 -104.980469 L 37.226562 -104.980469 L 59.9375 0 L 86.738281 0 L 64.03125 -104.980469 Z M 59.9375 -233.417969 L 59.9375 -132.15625 L 36.109375 -132.15625 L 36.109375 -233.417969 Z M 59.9375 -233.417969 "/></g></g></g><g fill="#ffffff" fill-opacity="1"><g transform="translate(413.928236, 750.104264)"><g><path d="M 9.308594 -260.59375 L 9.308594 -233.417969 L 59.9375 -233.417969 L 59.9375 -26.804688 L 36.109375 -26.804688 L 36.109375 -85.25 L 9.308594 -85.25 L 9.308594 0 L 86.738281 0 L 86.738281 -260.59375 Z M 9.308594 -260.59375 "/></g></g></g><g fill="#ffffff" fill-opacity="1"><g transform="translate(522.253208, 750.104264)"><g><path d="M 9.308594 -260.59375 L 9.308594 0.371094 L 86.738281 0.371094 L 86.738281 -260.59375 Z M 36.109375 -26.804688 L 36.109375 -233.417969 L 59.9375 -233.417969 L 59.9375 -26.804688 Z M 36.109375 -26.804688 "/></g></g></g><g fill="#ffffff" fill-opacity="1"><g transform="translate(630.578181, 750.104264)"><g><path d="M 9.308594 -260.59375 L 9.308594 0.371094 L 86.738281 0.371094 L 86.738281 -119.871094 L 73.339844 -141.835938 L 86.738281 -163.429688 L 86.738281 -260.59375 Z M 59.9375 -26.804688 L 36.109375 -26.804688 L 36.109375 -128.0625 L 54.722656 -128.0625 L 59.9375 -119.871094 Z M 59.9375 -163.429688 L 54.722656 -155.238281 L 36.109375 -155.238281 L 36.109375 -233.417969 L 59.9375 -233.417969 Z M 59.9375 -163.429688 "/></g></g></g><g fill="#ffffff" fill-opacity="1"><g transform="translate(738.903144, 750.104264)"><g><path d="M 9.308594 -260.59375 L 9.308594 -128.0625 L 59.9375 -128.0625 L 59.9375 -26.804688 L 36.109375 -26.804688 L 36.109375 -72.222656 L 9.308594 -72.222656 L 9.308594 0 L 86.738281 0 L 86.738281 -155.238281 L 36.109375 -155.238281 L 36.109375 -233.417969 L 59.9375 -233.417969 L 59.9375 -188 L 86.738281 -188 L 86.738281 -260.59375 Z M 9.308594 -260.59375 "/></g></g></g></svg>